<?xml version="1.0" encoding="UTF-8"?>
<!DOCTYPE svg PUBLIC "-//W3C//DTD SVG 1.1//EN" "http://www.w3.org/Graphics/SVG/1.1/DTD/svg11.dtd">
<svg version="1.1" xmlns="http://www.w3.org/2000/svg" xmlns:xlink="http://www.w3.org/1999/xlink" x="0" y="0" width="391" height="265" viewBox="0, 0, 391, 265">
  <defs>
    <clipPath id="Clip_1">
      <path d="M130.034,-3.097 L260.966,-3.097 L260.966,133.835 L130.034,133.835 z M235.965,10.903 L155.034,10.903 C147.302,10.903 141.034,17.171 141.034,24.903 L141.034,105.835 C141.034,113.567 147.302,119.835 155.034,119.835 L235.965,119.835 C243.698,119.835 249.966,113.567 249.965,105.835 L249.965,24.903 C249.966,17.171 243.698,10.903 235.965,10.903 z"/>
    </clipPath>
    <filter id="Shadow_2">
      <feGaussianBlur in="SourceAlpha" stdDeviation="5"/>
      <feOffset dx="0" dy="3" result="offsetblur"/>
      <feFlood flood-color="#000000"/>
      <feComposite in2="offsetblur" operator="in"/>
    </filter>
  </defs>
  <g id="Layer_1">
    <g>
      <g>
        <path d="M24.491,12.903 L105.422,12.903 C112.05,12.903 117.422,18.276 117.422,24.903 L117.422,105.835 C117.422,112.462 112.05,117.835 105.422,117.835 L24.491,117.835 C17.864,117.835 12.491,112.462 12.491,105.835 L12.491,24.903 C12.491,18.276 17.864,12.903 24.491,12.903 z" fill="#FAFAFA"/>
        <path d="M24.491,12.903 L105.422,12.903 C112.05,12.903 117.422,18.276 117.422,24.903 L117.422,105.835 C117.422,112.462 112.05,117.835 105.422,117.835 L24.491,117.835 C17.864,117.835 12.491,112.462 12.491,105.835 L12.491,24.903 C12.491,18.276 17.864,12.903 24.491,12.903 z" fill-opacity="0" stroke="#07253F" stroke-width="4" stroke-linecap="round" stroke-linejoin="round"/>
      </g>
      <text transform="matrix(1, 0, 0, 1, 64.957, 64.799)">
        <tspan x="-32.016" y="32.5" font-family="Georgia" font-size="96" fill="#07253F">A</tspan>
      </text>
    </g>
    <g>
      <g>
        <path d="M285.279,147.549 L366.21,147.549 C372.837,147.549 378.21,152.922 378.21,159.549 L378.21,240.48 C378.21,247.108 372.837,252.48 366.21,252.48 L285.279,252.48 C278.651,252.48 273.279,247.108 273.279,240.48 L273.279,159.549 C273.279,152.922 278.651,147.549 285.279,147.549 z" fill="#FAFAFA"/>
        <path d="M285.279,147.549 L366.21,147.549 C372.837,147.549 378.21,152.922 378.21,159.549 L378.21,240.48 C378.21,247.108 372.837,252.48 366.21,252.48 L285.279,252.48 C278.651,252.48 273.279,247.108 273.279,240.48 L273.279,159.549 C273.279,152.922 278.651,147.549 285.279,147.549 z" fill-opacity="0" stroke="#07253F" stroke-width="4" stroke-linecap="round" stroke-linejoin="round"/>
      </g>
      <text transform="matrix(1, 0, 0, 1, 325.744, 199.444)">
        <tspan x="-29.32" y="32.5" font-family="Georgia" font-size="96" fill="#07253F">F</tspan>
      </text>
    </g>
    <g>
      <g>
        <path d="M285.279,12.903 L366.21,12.903 C372.837,12.903 378.21,18.276 378.21,24.903 L378.21,105.835 C378.21,112.462 372.837,117.835 366.21,117.835 L285.279,117.835 C278.651,117.835 273.279,112.462 273.279,105.835 L273.279,24.903 C273.279,18.276 278.651,12.903 285.279,12.903 z" fill="#FAFAFA"/>
        <path d="M285.279,12.903 L366.21,12.903 C372.837,12.903 378.21,18.276 378.21,24.903 L378.21,105.835 C378.21,112.462 372.837,117.835 366.21,117.835 L285.279,117.835 C278.651,117.835 273.279,112.462 273.279,105.835 L273.279,24.903 C273.279,18.276 278.651,12.903 285.279,12.903 z" fill-opacity="0" stroke="#07253F" stroke-width="4" stroke-linecap="round" stroke-linejoin="round"/>
      </g>
      <text transform="matrix(1, 0, 0, 1, 325.744, 64.799)">
        <tspan x="-34.664" y="32.5" font-family="Georgia" font-size="96" fill="#07253F">C</tspan>
      </text>
    </g>
    <g>
      <g>
        <path d="M24.491,147.549 L105.422,147.549 C112.05,147.549 117.422,152.922 117.422,159.549 L117.422,240.48 C117.422,247.108 112.05,252.48 105.422,252.48 L24.491,252.48 C17.864,252.48 12.491,247.108 12.491,240.48 L12.491,159.549 C12.491,152.922 17.864,147.549 24.491,147.549 z" fill="#FAFAFA"/>
        <path d="M24.491,147.549 L105.422,147.549 C112.05,147.549 117.422,152.922 117.422,159.549 L117.422,240.48 C117.422,247.108 112.05,252.48 105.422,252.48 L24.491,252.48 C17.864,252.48 12.491,247.108 12.491,240.48 L12.491,159.549 C12.491,152.922 17.864,147.549 24.491,147.549 z" fill-opacity="0" stroke="#07253F" stroke-width="4" stroke-linecap="round" stroke-linejoin="round"/>
      </g>
      <text transform="matrix(1, 0, 0, 1, 64.957, 199.444)">
        <tspan x="-34.664" y="32.5" font-family="Georgia" font-size="96" fill="#07253F">D</tspan>
      </text>
    </g>
    <g>
      <g>
        <path d="M155.034,147.549 L235.966,147.549 C242.593,147.549 247.966,152.922 247.966,159.549 L247.966,240.48 C247.966,247.108 242.593,252.48 235.966,252.48 L155.034,252.48 C148.407,252.48 143.034,247.108 143.034,240.48 L143.034,159.549 C143.034,152.922 148.407,147.549 155.034,147.549 z" fill="#FAFAFA"/>
        <path d="M155.034,147.549 L235.966,147.549 C242.593,147.549 247.966,152.922 247.966,159.549 L247.966,240.48 C247.966,247.108 242.593,252.48 235.966,252.48 L155.034,252.48 C148.407,252.48 143.034,247.108 143.034,240.48 L143.034,159.549 C143.034,152.922 148.407,147.549 155.034,147.549 z" fill-opacity="0" stroke="#07253F" stroke-width="4" stroke-linecap="round" stroke-linejoin="round"/>
      </g>
      <text transform="matrix(1, 0, 0, 1, 195.5, 199.444)">
        <tspan x="-32.016" y="32.5" font-family="Georgia" font-size="96" fill="#07253F">E</tspan>
      </text>
    </g>
    <g>
      <g>
        <path d="M235.965,10.903 C243.698,10.903 249.966,17.171 249.965,24.903 L249.965,105.835 C249.966,113.567 243.698,119.835 235.965,119.835 L155.034,119.835 C147.302,119.835 141.034,113.567 141.034,105.835 L141.034,24.903 C141.034,17.171 147.302,10.903 155.034,10.903 L235.965,10.903 z" clip-path="url(#Clip_1)" filter="url(#Shadow_2)" fill="rgba(0,0,0,0.75)"/>
        <path d="M155.034,12.903 L235.966,12.903 C242.593,12.903 247.966,18.276 247.966,24.903 L247.966,105.835 C247.966,112.462 242.593,117.835 235.966,117.835 L155.034,117.835 C148.407,117.835 143.034,112.462 143.034,105.835 L143.034,24.903 C143.034,18.276 148.407,12.903 155.034,12.903 z" fill="#07253F"/>
        <path d="M155.034,12.903 L235.966,12.903 C242.593,12.903 247.966,18.276 247.966,24.903 L247.966,105.835 C247.966,112.462 242.593,117.835 235.966,117.835 L155.034,117.835 C148.407,117.835 143.034,112.462 143.034,105.835 L143.034,24.903 C143.034,18.276 148.407,12.903 155.034,12.903 z" fill-opacity="0" stroke="#07253F" stroke-width="4" stroke-linecap="round" stroke-linejoin="round"/>
      </g>
      <text transform="matrix(1, 0, 0, 1, 195.5, 64.799)">
        <tspan x="-32.016" y="32.5" font-family="Georgia" font-size="96" fill="#FAFAFA">B</tspan>
      </text>
    </g>
  </g>
</svg>
