<svg width="454" height="472" xmlns="http://www.w3.org/2000/svg">
 <clipPath id="gb2745329c6_0_0.0">
  <path id="svg_1" clip-rule="nonzero" d="m0,0l960,0l0,540l-960,0l0,-540z"/>
 </clipPath>

 <g>
  <title>background</title>
  <rect fill="none" id="canvas_background" height="474" width="456" y="-1" x="-1"/>
 </g>
 <g>
  <title>Layer 1</title>
  <g id="svg_56">
   <path id="svg_6" fill-rule="evenodd" d="m216.10665,11.22504c-10.34642,0 -20.64778,0.80033 -30.90408,2.44392c-8.56551,1.34533 -16.85424,3.80856 -25.25238,5.9907c-22.00598,5.82335 -42.49927,14.89524 -60.35982,29.28624c-14.44679,11.47719 -27.49246,24.5808 -38.916,39.02544c-22.06178,28.27777 -33.76425,60.81041 -38.41178,96.08522c-0.55787,4.25487 -0.55787,8.62343 -1.23161,12.87831c-1.17583,8.39813 -1.84742,16.85422 -1.959,25.36609c0,5.87915 0.27894,11.70248 0.95268,17.52582c1.56634,15.11624 5.48647,29.8999 11.70248,43.72876c9.51819,20.9975 22.05962,40.48446 37.34752,57.72922c11.64454,13.32675 24.525,25.25454 39.30652,34.94009c22.61964,14.83945 47.14464,25.25238 73.74236,30.5715c9.4624,1.96112 19.03851,3.4159 28.6125,4.25699c5.46501,0.40555 10.9472,0.60294 16.42723,0.60294c5.07451,0 10.14902,-0.1695 15.20851,-0.49137c10.35928,-0.61581 20.71643,-1.23159 30.90836,-3.30432c21.61334,-4.36642 42.44348,-10.97296 61.70303,-21.7807c17.69531,-10.07818 33.59686,-23.0123 46.97943,-38.35599c15.39731,-17.35629 27.09979,-37.12222 36.61798,-58.1755c7.0571,-15.56684 12.82251,-31.57999 14.95102,-48.7153c1.12002,-9.01395 2.12851,-18.08585 0.6716,-27.21137c-0.11157,-0.95267 -0.16736,-1.96115 -0.11157,-2.96747c0,-7.28024 -0.72739,-14.61413 -2.1843,-21.78283c-4.70331,-24.07654 -12.3183,-47.48151 -22.67758,-69.76643c-15.45313,-33.03687 -41.2655,-60.13667 -73.57285,-77.10247c-16.35,-8.45609 -32.98108,-16.29422 -50.78586,-21.3344c-21.10908,-5.93491 -42.94771,-9.12553 -64.89577,-9.40661c-1.29168,-0.0236 -2.57908,-0.03647 -3.86863,-0.03647l0.00001,-0.00001z" fill="#d1dbe0"/>
   <path id="svg_7" fill-rule="evenodd" d="m159.9931,385.48125c-7.46478,0 -14.93387,0.10513 -22.38362,0.26178c-1.06426,0.05792 -2.12851,0.11371 -3.19277,0.28107c-2.23793,0.27893 -4.08749,1.73584 -4.92645,3.80642c-0.33687,0.72953 -0.44845,1.62427 -1.12004,2.12851c-1.79163,1.39896 -2.63274,3.4159 -3.69484,5.26331c-2.29587,4.08752 -4.87282,8.00766 -7.7287,11.70248c-3.918,5.04019 -7.67077,10.07822 -12.03721,14.66995c-1.06425,1.00846 -1.40112,2.57694 -0.8411,3.92014c0.44844,1.84741 2.07272,3.07904 3.97592,3.07904c2.77221,0.12659 5.54441,0.18881 8.31447,0.18881c0.92479,0 1.84957,-0.00644 2.77221,-0.01931c13.77519,-0.22529 27.60403,-0.44843 41.37923,-0.61795c3.73775,-0.04505 7.47336,-0.06437 11.20684,-0.06437c19.09645,0 38.16501,0.52997 57.2722,0.90546c2.63273,-0.11157 5.20753,-0.28107 7.84027,-0.28107c17.13318,0.22528 34.26633,0.56003 51.3995,0.67374c2.20575,0.02145 4.40937,0.0322 6.61295,0.0322c14.03482,0 28.06751,-0.4227 42.10233,-0.76172c2.85589,-0.05579 5.76757,-0.27893 8.62344,-0.50424c2.35165,-0.11158 4.70331,-0.44629 6.94125,-1.11789c2.91168,-0.95267 3.69699,-3.75278 1.56848,-5.93708c-0.95053,-1.00631 -1.84741,-2.12634 -2.68637,-3.30218c-4.9844,-6.66443 -9.0719,-13.88675 -13.21518,-21.1091c-1.62426,-2.80008 -3.30432,-5.60019 -4.25488,-8.73502c-0.72952,-2.46536 -2.46536,-3.6412 -4.98437,-3.75278c-1.56849,-0.05578 -3.07904,-0.16735 -4.59174,-0.16735c-15.24713,-0.04077 -30.4642,-0.3154 -45.6727,-0.3154c-5.79333,0 -11.58447,0.0386 -17.37564,0.14804c-9.49029,0.16736 -18.96771,0.22314 -28.43655,0.22314c-9.46885,0 -18.9334,-0.05578 -28.3958,-0.11157c-9.12552,-0.05579 -18.25321,0 -27.32509,-0.28107c-5.70749,-0.1459 -11.42569,-0.20599 -17.14604,-0.20599z" fill="#d48442"/>
   <path id="svg_8" fill-rule="evenodd" d="m180.99921,423.51541c-1.60068,0 -3.20349,0.00858 -4.81059,0.02359c-1.90322,0 -3.80857,0 -5.71178,0.05579c-7.05496,0.05578 -14.10992,0.11157 -21.22067,0.28106c-0.89688,0 -1.79163,0 -2.74431,0.05582l-2.96745,0.05579c-8.28659,0.16735 -16.57316,0.33471 -24.91767,0.55999c-1.9032,0 -3.80642,0.05579 -5.65384,0.11158c-3.24854,0.11157 -6.49494,0.16735 -9.74348,0.28109c-5.76756,0.11158 -8.11921,2.35166 -8.79081,8.11707c-0.05579,0.44845 -0.05579,0.89688 -0.11157,1.28955c-0.39266,5.1496 -0.16951,10.30133 0.56002,15.39734c0.56002,4.19903 2.63059,6.55072 6.60651,7.44757c1.00847,0.2232 1.959,0.44849 2.91168,0.61584c2.63059,0.39264 5.31911,0.67157 7.95185,0.83893c1.9032,0.11157 3.8622,0.1695 5.82335,0.1695l0.33472,0c7.78234,0.11163 15.56683,0.16742 23.34917,0.33477c2.01693,0.05579 4.08751,0.11158 6.16021,0.22529c1.67792,0 3.35798,0.11157 5.03804,0.16735c5.04018,0.27893 10.07821,0.44843 15.0626,0.61579c2.07272,0.11157 4.14329,0.16736 6.216,0.22314c6.32544,0.16956 12.65301,0.28113 18.98059,0.33692c2.07272,0.05578 4.14329,0.05578 6.216,0.05578l4.92646,0c6.99917,-0.05578 14.05413,-0.11157 21.05331,-0.16736c2.07272,0 4.08749,-0.05578 6.16022,-0.05578c6.26963,-0.11377 12.54144,-0.22534 18.75744,-0.33692c2.07056,0 4.14328,-0.05578 6.21385,-0.16736c1.62427,0 3.24856,0 4.92861,-0.05578c5.87913,-0.1695 11.70247,-0.33685 17.58162,-0.50421c2.01477,-0.05579 4.08749,-0.11157 6.16022,-0.1695c6.26962,-0.22314 12.54144,-0.44629 18.81323,-0.67163c2.07055,-0.11157 4.14328,-0.16736 6.21383,-0.27893c4.81705,-0.16736 9.68772,-0.39264 14.5026,-0.67157c2.07272,-0.05578 4.19906,-0.16949 6.27179,-0.28107c0.6716,-0.05584 1.39899,-0.05584 2.12851,-0.11163c3.30218,-0.16736 6.6065,-0.44842 9.90869,-0.83893c2.07272,-0.22528 4.08749,-0.50421 6.16022,-0.78534c1.73584,-0.27893 3.47168,-0.50421 5.15176,-0.78314c2.91165,-0.50421 4.14328,-1.51269 4.59171,-4.53595c1.23162,-7.78235 0.89474,-15.73419 -1.06424,-23.34918c-0.50425,-2.12848 -1.68006,-2.96744 -3.86435,-3.07901l-3.63907,0c-1.73584,-0.05582 -3.52747,-0.05582 -5.26331,-0.05582l-0.11157,0c-4.1991,0 -8.34238,0.05582 -12.54358,0.11161c-1.84744,0.05578 -3.69485,0.05578 -5.54227,0.05578c-1.84744,0.0279 -3.69485,0.04291 -5.54443,0.04291c-1.84741,0 -3.69482,-0.01501 -5.54224,-0.04291c-1.3432,-0.05578 -2.74432,-0.05578 -4.14331,-0.05578c-1.90319,-0.05579 -3.75277,-0.05579 -5.60019,-0.05579c-6.8876,-0.1116 -13.77304,-0.1116 -20.71643,-0.16739l-27.3251,0c-1.90321,0 -3.80641,0.05579 -5.65599,0.05579c-7.44547,0.1116 -14.50043,0.16739 -20.66065,0.22317l-5.60018,0c-9.2929,-0.16739 -17.52584,-0.27896 -25.41976,-0.39267c-1.9032,0 -3.75062,0 -5.65597,-0.05578l-2.57482,0c-3.87936,-0.03864 -7.73298,-0.07938 -11.59518,-0.07938z" fill="#ffbb4d"/>
   <path id="svg_9" fill-rule="evenodd" d="m306.20329,423.93167c0,0.27893 0,0.61578 -0.05579,0.95053c-0.33471,5.32126 -0.61581,10.64035 -0.95053,15.90369c-0.39267,5.93493 -0.72952,11.86987 -1.06424,17.86053c2.07056,-0.11157 4.14328,-0.16736 6.21384,-0.27893c0.39267,-9.01611 0.78534,-18.03006 1.17584,-27.04614c0.11371,-2.46323 0.28107,-4.87067 0.28107,-7.33389c-1.9032,-0.05579 -3.75278,-0.05579 -5.60019,-0.05579z" fill="#ffffff"/>
   <path id="svg_10" fill-rule="evenodd" d="m332.57573,423.98745c-1.84744,0.05579 -3.69485,0.05579 -5.54227,0.05579c-0.11157,0.72735 -0.11157,1.45691 -0.16736,2.12848c-0.50424,7.78234 -1.00848,15.56469 -1.51272,23.34921c-0.16736,2.68634 -0.33685,5.43066 -0.50421,8.17499c2.07272,-0.05579 4.19906,-0.1695 6.27179,-0.28107c0.44845,-10.35931 0.95053,-20.66068 1.39898,-30.96417c0,-0.83896 0.05579,-1.68009 0.05579,-2.46323z" fill="#ffffff"/>
   <path id="svg_11" fill-rule="evenodd" d="m279.94246,423.76428c-0.16736,11.4772 -0.39053,22.95654 -0.72739,34.37793c-0.05578,0.44843 -0.05578,0.89691 -0.05578,1.34534c2.01477,-0.05579 4.08749,-0.11158 6.16021,-0.1695c0.22315,-10.91717 0.33472,-21.83648 0.27894,-32.81158c-0.05579,-0.89475 -0.05579,-1.79166 -0.11158,-2.74219l-5.5444,0z" fill="#ffffff"/>
   <path id="svg_12" fill-rule="evenodd" d="m345.11931,423.87585c-0.05579,0.39053 -0.05579,0.83896 -0.05579,1.23163c-0.6716,10.47085 -1.28741,20.94171 -1.90536,31.35681c2.07272,-0.22528 4.08749,-0.50421 6.16022,-0.78534c0.44845,-10.0224 0.89688,-20.04483 1.28741,-29.45145c-0.05579,-1.12002 -0.05579,-1.73584 -0.05579,-2.29583c-1.79165,-0.05582 -3.58328,-0.05582 -5.31912,-0.05582l-0.11157,0z" fill="#ffffff"/>
   <path id="svg_13" fill-rule="evenodd" d="m118.62674,424.54745c-1.90321,0 -3.80642,0.05579 -5.65384,0.11157c-0.11372,7.39185 -0.33687,14.72574 -0.50423,22.0618c-0.05579,3.97589 -0.11158,7.94971 -0.11158,11.9256c1.90321,0.11157 3.86221,0.16949 5.82335,0.16949l0.33473,0c0.05578,-11.42352 0.05578,-22.84704 0.11157,-34.26846z" fill="#ffffff"/>
   <path id="svg_14" fill-rule="evenodd" d="m149.25617,423.87585c-0.89688,0 -1.79163,0 -2.68852,0.05582l-3.02324,0.05578c-0.22316,3.52747 -0.39267,6.99915 -0.56003,10.52664c-0.39265,8.39817 -0.78317,16.74268 -1.17583,24.6366c2.07273,0.05579 4.1433,0.11157 6.21601,0.22528c0.39052,-11.87201 0.83896,-23.68606 1.23161,-35.50012z" fill="#ffffff"/>
   <path id="svg_15" fill-rule="evenodd" d="m176.18862,423.539c-1.90321,0 -3.80856,0 -5.71178,0.05579c-0.33686,5.15176 -0.6716,10.30349 -1.00847,15.51104c-0.50422,7.33387 -0.95053,14.72571 -1.34318,21.05329c2.07272,0.11157 4.14329,0.16736 6.216,0.22314c0.61582,-12.26245 1.23162,-24.52496 1.84743,-36.84326z" fill="#ffffff"/>
   <path id="svg_16" fill-rule="evenodd" d="m195.16921,423.59478c-0.61581,12.37408 -1.23161,24.7503 -1.84743,37.12439c2.07273,0.05579 4.1433,0.05579 6.21601,0.05579c0.16735,-3.86438 0.22314,-7.72657 0.39051,-11.53516c0.28109,-8.73502 0.6158,-17.47003 0.89689,-25.58923c-1.9032,0 -3.75063,0 -5.65598,-0.05579z" fill="#ffffff"/>
   <path id="svg_17" fill-rule="evenodd" d="m258.16176,423.76428c-1.90321,0 -3.80641,0.05579 -5.65599,0.05579c-0.67159,11.92563 -1.34319,23.79547 -2.01477,35.72326c0,0.22315 0,0.44843 0,0.67157c2.01477,0 4.08749,-0.05578 6.15806,-0.11157c0.16951,-4.92859 0.44845,-9.79925 0.67374,-14.66992c0.27895,-7.22446 0.56003,-14.39099 0.83896,-21.66913z" fill="#ffffff"/>
   <path id="svg_18" fill-rule="evenodd" d="m226.24493,424.04325c0,11.47931 -0.4463,22.90073 -0.6716,34.38004c-0.05579,0.72741 -0.05579,1.45477 -0.05579,2.18432c2.07273,0 4.0875,-0.05578 6.16022,-0.05578c0.11157,-11.31202 0.22315,-22.62183 0.27893,-33.93378l-0.05578,0c0,-0.83896 -0.05579,-1.67792 -0.05579,-2.5748l-5.60019,0z" fill="#ffffff"/>
   <path id="svg_19" fill-rule="evenodd" d="m216.10665,11.22504c-10.34642,0 -20.64778,0.80033 -30.90408,2.44392c-8.56551,1.34533 -16.85424,3.80856 -25.25238,5.9907c-22.00598,5.82335 -42.49927,14.89524 -60.35982,29.28624c-14.44679,11.47719 -27.49246,24.5808 -38.916,39.02544c-22.06178,28.27777 -33.76425,60.81041 -38.41178,96.08522c-0.55787,4.25487 -0.55787,8.62343 -1.23161,12.87831c-1.17583,8.39813 -1.84742,16.85422 -1.959,25.36609c0,5.87915 0.27894,11.70248 0.95268,17.52582c1.56634,15.11624 5.48647,29.8999 11.70248,43.72876c9.51819,20.9975 22.05962,40.48446 37.34752,57.72922c11.64454,13.32675 24.525,25.25454 39.30652,34.94009c22.61964,14.83945 47.14464,25.25238 73.74236,30.5715c9.4624,1.96112 19.03851,3.4159 28.6125,4.25699c5.46501,0.40555 10.9472,0.60294 16.42723,0.60294c5.07451,0 10.14902,-0.1695 15.20851,-0.49137c10.35928,-0.61581 20.71643,-1.23159 30.90836,-3.30432c21.61334,-4.36642 42.44348,-10.97296 61.70303,-21.7807c17.69531,-10.07818 33.59686,-23.0123 46.97943,-38.35599c15.39731,-17.35629 27.09979,-37.12222 36.61798,-58.1755c7.0571,-15.56684 12.82251,-31.57999 14.95102,-48.7153c1.12002,-9.01395 2.12851,-18.08585 0.6716,-27.21137c-0.11157,-0.95267 -0.16736,-1.96115 -0.11157,-2.96747c0,-7.28024 -0.72739,-14.61413 -2.1843,-21.78283c-4.70331,-24.07654 -12.3183,-47.48151 -22.67758,-69.76643c-15.45313,-33.03687 -41.2655,-60.13667 -73.57285,-77.10247c-16.35,-8.45609 -32.98108,-16.29422 -50.78586,-21.3344c-21.10908,-5.93491 -42.94771,-9.12553 -64.89577,-9.40661c-1.29168,-0.0236 -2.57908,-0.03647 -3.86863,-0.03647l0.00001,-0.00001z" fill-opacity="0.0275" fill="#000000"/>
   <path id="svg_20" fill-rule="evenodd" d="m233.73975,70.6987c-1.34103,0 -2.68637,0.08368 -4.02312,0.25105c-13.82884,1.62427 -22.73336,8.3445 -26.93245,21.89441c-3.35797,10.91931 -0.83896,23.34917 9.74349,30.85257c1.2874,0.95053 2.51901,2.01479 3.97592,3.13483c-17.5816,8.51187 -27.82933,21.89441 -29.11673,41.15393c-1.2874,19.26167 7.22232,33.87797 23.51654,44.79515c-17.07739,6.04864 -30.29256,16.46158 -39.25073,31.91681c-9.01396,15.39734 -11.86985,32.02841 -8.51187,49.55426c5.82335,30.57147 30.7968,53.86487 61.76094,57.61551c2.8516,0.34116 5.69247,0.50851 8.51402,0.50851c27.74779,0 53.37567,-16.16763 65.11676,-41.88562c6.43918,-14.16784 8.34238,-28.94937 4.9844,-44.12353c-5.60018,-25.58927 -21.16702,-42.94772 -45.24359,-52.97012c17.19111,-11.03092 26.26087,-26.20508 24.41343,-46.47307c-1.79163,-20.4375 -13.49411,-33.82004 -32.30735,-41.43502c1.79164,-1.51269 3.52748,-3.13698 5.20755,-4.81703c15.50888,-17.13316 6.99918,-40.53813 -9.96664,-47.64888c-3.78709,-1.55775 -7.82526,-2.32376 -11.88057,-2.32376z" fill="#ffffff"/>
   <path id="svg_21" fill-rule="evenodd" d="m100.8327,83.2337c-0.33472,0 -0.66086,0.23817 -0.9634,0.42699c-2.07057,1.45691 -4.14329,2.85588 -6.10229,4.48016c-31.57996,25.97975 -47.42572,59.52086 -48.43419,100.22636c0.05579,4.0875 0.27894,8.17499 0.61581,12.2067c0.78317,10.64038 3.19061,21.05331 7.05496,30.96417c0.44201,1.15866 0.55573,2.85803 2.00191,2.85803c0.0236,0 0.04506,0 0.07081,-0.00216c1.79163,-0.05579 1.56634,-2.01477 1.73584,-3.19062c1.00632,-6.72021 1.90321,-13.38253 2.79796,-20.10275c1.40112,-10.47088 2.46537,-20.94174 4.81702,-31.2431c2.07057,-8.96031 4.70331,-17.75113 7.38969,-26.54193c6.43915,-21.49961 14.55836,-42.21819 26.09348,-61.53565c1.28741,-2.18429 2.40744,-4.48016 3.58327,-6.6623c0.33688,-0.6158 0.50423,-1.23377 -0.16736,-1.68006c-0.16521,-0.14805 -0.33044,-0.20384 -0.49351,-0.20384z" fill="#ffffff"/>
   <path id="svg_22" fill-rule="evenodd" d="m194.2294,31.5059c-4.74837,0 -9.49674,0.33044 -14.23438,1.09c-19.82168,3.13482 -37.96331,10.30136 -53.69751,23.12388c-5.59806,4.64752 -10.63823,10.02242 -15.00467,15.84577c-0.1695,0.22529 -0.33687,0.44844 -0.44844,0.67373c-0.39266,0.44631 -0.44845,1.00632 -0.22315,1.51056c0.26391,0.4935 0.65872,0.62653 1.07712,0.62653c0.1974,0 0.40339,-0.03003 0.60079,-0.06652c1.40113,-0.39265 2.74431,-0.95266 3.97593,-1.68005c13.15939,-6.55073 26.37242,-12.9341 39.98025,-18.42057c17.86055,-6.99918 36.11375,-12.99203 54.64806,-17.8627c1.06425,-0.27893 2.0727,-0.61581 3.07902,-0.95268c0.44846,-0.16735 0.78533,-0.56002 0.72954,-1.0621c-0.05579,-0.50423 -0.50424,-0.95268 -1.06426,-1.06425c-1.06425,-0.28109 -2.1285,-0.50424 -3.19274,-0.61581c-5.39852,-0.71665 -10.81205,-1.14579 -16.22556,-1.14579z" fill="#ffffff"/>
   <path id="svg_23" fill-rule="evenodd" d="m217.20952,329.26687c-2.00406,0 -4.01025,0.01932 -6.02504,0.09225c-14.33522,0.39267 -28.66829,1.51056 -42.89194,3.19062c-10.47085,1.28955 -20.94172,2.74432 -31.24308,5.20755c-16.40579,3.86435 -32.30735,9.4624 -48.21105,15.11838c-1.95899,0.6716 -3.8622,1.51269 -5.70962,2.35165c-3.13697,1.40112 -3.47169,3.58328 -0.89689,5.76755c3.02324,2.74432 6.216,5.20755 9.63191,7.44763c9.06974,5.71176 18.2532,11.30981 27.65982,16.46158c12.15092,6.6065 24.58079,12.65515 37.73803,16.91c23.32771,7.63214 47.70253,11.54801 72.26399,11.54801c0.84755,0 1.69508,-0.00431 2.54262,-0.01288c6.99917,-0.05579 14.05414,-0.56003 20.99753,-1.56848c10.86352,-1.73584 21.66911,-3.97593 32.2537,-6.83182c10.91715,-2.85587 21.83646,-5.59806 32.36313,-9.74134c12.09513,-4.81701 23.40497,-11.14245 34.77057,-17.52581c4.81702,-2.63275 9.35083,-5.76758 13.60782,-9.23926c1.56635,-1.28742 2.96747,-2.68854 4.1991,-4.25485c1.68005,-2.1843 1.39896,-3.36014 -1.06427,-4.64753c-5.20752,-2.68853 -10.58243,-5.04019 -16.12683,-6.99917c-12.7088,-4.59174 -25.75662,-8.11923 -38.80231,-11.76041c-15.90155,-4.47803 -32.08417,-7.72656 -48.48996,-9.74136c-11.75827,-1.37323 -23.60237,-1.7573 -35.4572,-1.7573c-1.69293,0 -3.388,0.00644 -5.08093,0.02146c-2.68854,0 -5.35774,-0.03647 -8.0291,-0.03647z" fill="#ffffff"/>
   <path id="svg_24" fill-rule="evenodd" d="m305.85356,120.89448c-1.63071,0 -3.13055,1.05138 -3.51248,2.68852c-0.11371,0.39267 -0.1695,0.84111 -0.22528,1.28955c-1.12006,5.93492 -2.24008,11.86985 -2.8559,17.91634c-0.11157,1.34534 -0.83896,2.57695 -1.95898,3.30434c-5.87915,4.64752 -11.3656,9.74348 -16.96582,14.72572c-0.50421,0.44845 -1.00846,0.95268 -1.45691,1.5685c-1.00632,1.23161 -1.00632,3.02323 0,4.25485c0.65014,0.86685 1.67361,1.33676 2.70785,1.33676c0.57074,0 1.14362,-0.14162 1.66074,-0.43987c0.78317,-0.44845 1.51269,-0.95268 2.18429,-1.56848c5.15174,-4.14329 10.35715,-8.175 15.34153,-12.42987c1.08786,-0.93765 2.1242,-1.42258 3.27859,-1.42258c0.57074,0 1.16937,0.11802 1.81738,0.35833c0.67161,0.22316 1.39896,0.33687 2.12635,0.39265c3.52749,0.33473 6.99917,0.61582 10.47088,1.00633c2.46323,0.28109 4.81488,0.72953 7.28025,1.00846c0.26605,0.03648 0.52569,0.05365 0.77673,0.05365c2.12851,0 3.68842,-1.24234 4.03815,-3.24425c0.39267,-2.12851 -0.8411,-4.03172 -3.19275,-4.59174c-1.56635,-0.39265 -3.19061,-0.61581 -4.81488,-0.78532c-3.41593,-0.44629 -6.88761,-0.83896 -10.35929,-1.23161c0.33686,-1.06426 1.12003,-1.39898 1.73584,-1.84742c3.97593,-3.13482 7.95185,-6.216 11.92777,-9.35083c0.78317,-0.56002 1.51056,-1.23161 2.1843,-1.959c2.27441,-2.7014 0.09655,-6.44558 -2.93528,-6.44558c-0.54928,0 -1.12863,0.1223 -1.71225,0.39694c-0.61581,0.28108 -1.23159,0.67375 -1.79162,1.17583c-3.75278,2.91168 -7.50342,5.87913 -11.31198,8.79081c-0.6716,0.50423 -1.2316,1.28954 -2.51902,1.5127l0,-0.05579c0.22315,-2.07272 0.56003,-3.92013 0.72739,-5.82335c0.22528,-2.40744 0.95267,-4.75909 0.72739,-7.22232c-0.05579,-1.79164 -1.45478,-3.24855 -3.2464,-3.36012c-0.04291,-0.00215 -0.08368,-0.00215 -0.12659,-0.00215z" fill="#d48442"/>
   <path id="svg_25" fill-rule="evenodd" d="m161.6281,113.26663c-0.10944,0 -0.22101,0.0043 -0.33472,0.01503c-1.90321,0.22314 -3.13482,1.73584 -3.13482,4.08749c0,1.62427 0.16735,3.2464 0.33686,4.81488c0.2768,2.95031 0.55573,5.90059 0.88831,8.8509l0,0l-0.55359,0.33258c-1.51054,-1.06426 -3.02324,-2.1843 -4.59172,-3.24855c-1.68007,-1.17583 -3.30218,-2.46323 -5.09383,-3.52749c-0.52783,-0.32399 -1.1136,-0.47848 -1.69508,-0.47848c-1.02348,0 -2.0298,0.48277 -2.67349,1.37538c-1.12004,1.39897 -1.00847,3.41591 0.28108,4.64752c0.50208,0.6158 1.23161,1.06211 1.84741,1.56633c1.79164,1.68007 4.03173,2.91168 5.93492,5.15175c-3.58326,0.44846 -6.77601,0.8969 -9.96662,1.3432c-1.06426,0.05792 -2.12851,0.28108 -3.13697,0.72952c-1.73585,0.72739 -2.68638,2.5748 -2.23794,4.42223c0.27894,1.73584 1.84742,3.02324 3.63907,3.02324c1.06423,0 2.12635,-0.11157 3.19059,-0.27893c3.97594,-0.50423 7.89608,-1.12004 11.81621,-1.5127c1.75301,-0.17166 3.0211,-0.29609 4.04244,-0.29609c2.6306,0 3.63047,0.82393 7.10002,3.76779c5.9907,4.98439 12.42987,9.29503 18.19741,14.50258c0.76388,0.79175 1.75303,1.1844 2.74218,1.1844c1.04065,0 2.0813,-0.43556 2.85588,-1.29597c1.51269,-1.62429 1.51269,-3.75065 -0.16736,-5.60021c-1.06426,-1.12004 -2.1843,-2.12636 -3.41591,-3.07904c-5.43068,-4.36642 -10.80559,-8.67923 -16.34999,-12.8783c-1.84743,-1.28739 -3.07904,-3.30433 -3.30218,-5.54226c-0.72954,-6.16022 -1.68007,-12.32044 -2.63274,-18.4785c-0.31757,-2.27226 -1.73157,-3.5983 -3.58542,-3.5983z" fill="#d48442"/>
   <path id="svg_26" fill-rule="evenodd" d="m243.21074,92.8184c-1.08142,0 -2.16498,0.00644 -3.2464,0.02576c-2.85588,0.11157 -4.36859,1.2874 -4.75909,4.14328c-0.39266,2.91168 -0.56003,5.93492 0.33471,8.8466c0.78104,2.46751 1.32604,3.26141 3.00824,3.26141c0.4935,0 1.08356,-0.06651 1.8088,-0.18238c12.31828,-1.9032 24.29971,-5.31911 36.28328,-8.56551c0.72738,-0.16951 1.39895,-0.44844 2.01477,-0.78532c1.51269,-0.95054 1.39898,-2.68638 -0.27893,-3.35798c-1.00846,-0.33686 -2.07273,-0.6158 -3.13697,-0.72952c-8.39816,-1.68005 -16.96582,-2.29587 -25.53132,-2.63058c-2.16498,0 -4.32996,-0.02576 -6.49709,-0.02576z" fill="#ffbb4d"/>
   <path id="svg_27" fill-rule="evenodd" d="m347.03325,201.52661c-0.68878,0 -1.31744,0.42484 -1.57922,1.12003c-0.39051,0.83895 -0.72739,1.68005 -1.00632,2.51901c-1.00845,2.91168 -2.01694,5.87915 -3.19275,9.29504c-1.51056,-1.79162 -2.6864,-3.2464 -3.92014,-4.64752c-1.3432,-1.56848 -2.74218,-3.07904 -4.19909,-4.59174c-0.36691,-0.42697 -0.89902,-0.65441 -1.43759,-0.65441c-0.44629,0 -0.89261,0.15661 -1.24878,0.48706c-0.89688,0.78317 -0.78531,1.79162 -0.11158,2.68853c0.44629,0.56 0.89475,1.11789 1.39899,1.6221c2.18427,2.4654 4.25485,4.98441 6.15805,7.67078c-1.56631,1.00845 -3.30218,1.23377 -4.87066,1.84958c-1.17582,0.44629 -2.40744,0.72739 -3.58326,1.17581c-1.00848,0.27893 -1.62426,1.3432 -1.3432,2.35166c0.27036,0.95053 0.94623,1.35177 1.7573,1.35177c0.19098,0 0.39053,-0.02145 0.59436,-0.06436c1.12005,-0.22314 2.24008,-0.6716 3.35797,-0.9527c1.73584,-0.3905 3.30432,-1.2316 5.43283,-1.39895l0,0c-0.61581,2.07055 -1.12003,3.75061 -1.68005,5.48648c-0.56003,1.79162 -1.17582,3.58325 -1.62427,5.43283c-0.39267,1.0621 0.22314,2.23791 1.28738,2.63058c0.22745,0.08798 0.4549,0.13089 0.67591,0.13089c0.76599,0 1.47836,-0.50638 1.95684,-1.4183c0.27893,-0.56 0.50425,-1.17581 0.6716,-1.79163c0.83896,-2.57693 1.62427,-5.15173 2.46323,-7.89606c1.28738,0.50425 1.68005,1.45691 2.29587,2.1843c1.56848,1.84741 3.02325,3.80856 4.64752,5.65598c0.54715,0.64157 1.18439,0.95266 1.79807,0.95266c0.45703,0 0.89904,-0.17163 1.28097,-0.50638c0.89688,-0.72735 1.00845,-2.07055 0.28107,-2.96743c-0.6716,-0.95053 -1.34534,-1.90323 -2.12851,-2.79798c-1.9032,-2.35165 -3.8064,-4.7033 -5.71176,-6.99917c0.44845,-0.56 1.12002,-0.89688 1.84958,-0.95267c3.75061,-1.12003 7.55703,-2.24008 11.3656,-3.36011c1.84741,-0.56003 2.63058,-1.51056 2.35165,-2.74218c-0.25104,-1.00202 -0.99774,-1.53629 -2.17142,-1.53629c-0.40338,0 -0.85614,0.06223 -1.35608,0.19098c-1.51269,0.33685 -2.96743,0.78531 -4.42434,1.2316c-2.29587,0.6716 -4.5896,1.40112 -7.11075,2.12851c0.16949,-2.24009 1.00845,-3.92014 1.51269,-5.71177c0.44843,-1.62429 1.00846,-3.30218 1.39896,-4.92648c0.2811,-0.95267 -0.27893,-1.9032 -1.2316,-2.12848c-0.20169,-0.0751 -0.40555,-0.11157 -0.60507,-0.11157z" fill="#ffffff"/>
   <path id="svg_28" fill-rule="evenodd" d="m119.6395,199.18567c-0.88402,0 -1.51484,0.58362 -1.85172,1.49982c-0.22314,0.56003 -0.39265,1.17798 -0.56002,1.79379c-0.67159,2.51901 -1.34318,4.98224 -2.1285,7.72656c-1.51055,-0.6716 -2.24007,-1.73587 -3.13482,-2.63275c-0.95268,-0.95053 -1.79163,-2.01477 -2.8001,-2.91168c-0.39909,-0.42697 -0.86041,-0.60721 -1.30671,-0.60721c-1.3625,0 -2.57695,1.68005 -1.4376,3.0726c0.44844,0.6716 1.00846,1.28739 1.5127,1.9032c1.2874,1.39899 2.5748,2.8559 4.14329,4.53595c-2.74431,0.83896 -5.04018,1.51056 -7.3339,2.29373c-1.56849,0.56 -2.12851,1.40112 -1.79164,2.52115c0.21671,0.83038 0.87973,1.28525 1.90536,1.28525c0.28752,0 0.60508,-0.03647 0.94839,-0.10941c1.45691,-0.33688 2.80009,-0.84112 4.20121,-1.17584c0.74884,-0.12445 1.46764,-0.59006 2.24652,-0.59006c0.27035,0 0.545,0.05365 0.83252,0.19739c-0.11158,0.61581 -0.22529,1.17584 -0.33687,1.68008c-0.61581,1.95899 -1.23161,3.97593 -1.73585,5.9907c-0.33472,1.45691 0.33688,2.52118 1.45691,2.74432c0.19526,0.04291 0.38194,0.06223 0.55788,0.06223c0.97628,0 1.62856,-0.633 1.96114,-1.63071c0.50423,-1.23163 0.8411,-2.57483 1.2874,-3.80643c0.50423,-1.40112 0.50423,-2.96747 1.45691,-4.19906c0.89474,0.50207 1.68006,1.17581 2.40744,1.95898c1.23161,1.17584 2.46323,2.35165 3.80642,3.47168c0.38622,0.38409 0.90547,0.58148 1.42901,0.58148c0.54071,0 1.08571,-0.21026 1.48266,-0.63727c0.78532,-0.84109 0.78532,-2.12848 0,-2.96743c-0.78317,-0.84113 -1.73584,-1.56849 -2.51902,-2.40744c-1.23161,-1.23377 -2.74431,-2.24009 -3.80641,-3.697c0.78317,-0.56002 1.67791,-1.00631 2.68638,-1.17584c2.01693,-0.72738 4.08749,-1.39895 6.10442,-2.12634c1.56634,-0.61581 2.12636,-1.68005 1.67792,-2.91168c-0.29396,-0.80033 -0.99988,-1.28525 -1.92681,-1.28525c-0.30683,0 -0.63727,0.05365 -0.98272,0.16522c-2.24007,0.67157 -4.42437,1.51053 -6.66444,2.24008c-0.41842,0.11371 -0.83682,0.43555 -1.30886,0.43555c-0.22316,0 -0.45704,-0.0708 -0.70593,-0.26819c0.33472,-1.40112 0.61581,-2.80011 0.95053,-4.19909c0.39266,-1.5127 0.78532,-2.96744 1.06426,-4.48014c0.22314,-1.06427 -0.11158,-2.01693 -1.3432,-2.29587c-0.15448,-0.03006 -0.30253,-0.04507 -0.44415,-0.04507z" fill="#ffffff"/>
   <path id="svg_29" fill-rule="evenodd" d="m314.15513,62.46577c-0.62653,0 -1.15005,0.42912 -1.56848,1.0385c-0.39264,0.50209 -0.6716,1.11789 -0.95053,1.62213c-0.67374,1.17583 -1.17581,2.46538 -2.12851,3.52748c-0.89688,-0.50209 -1.34317,-1.45477 -2.01691,-2.12636c-1.0621,-1.12004 -2.12637,-2.24008 -3.30218,-3.24855c-0.30042,-0.27249 -0.68235,-0.41197 -1.07071,-0.41197c-0.40766,0 -0.82608,0.15234 -1.16938,0.46776c-0.78317,0.56003 -0.95269,1.62428 -0.33688,2.40744c0.50424,0.72954 1.12006,1.34534 1.73584,2.07272c1.23163,1.45476 2.68854,2.8001 3.5275,5.04018c-0.85828,0 -1.56635,-0.02576 -2.24222,-0.02576c-0.33902,0 -0.66946,0.00644 -1.00418,0.02576c-1.5127,0.11157 -3.02326,0.22314 -4.53595,0.3905c-1.00845,0 -1.73584,0.78532 -1.68006,1.79164c-0.05578,0.95268 0.67161,1.73584 1.62427,1.84743c0.78318,0.05792 1.62427,0.05792 2.40744,0.05792c0.11157,0.0043 0.22531,0.00644 0.33689,0.00644c0.45272,0 0.91619,-0.03433 1.39251,-0.03433c0.59436,0 1.21018,0.05578 1.85389,0.30684c-0.89475,1.79162 -1.73588,3.36011 -2.51905,4.98439c-0.84109,1.6779 -0.61578,2.91166 0.56003,3.52748c0.30899,0.13946 0.61151,0.21027 0.90549,0.21027c0.87542,0 1.67148,-0.62009 2.34091,-1.83455c0.61581,-1.00846 1.06427,-2.1285 1.62427,-3.13697c0.6716,-1.2874 1.12005,-2.74217 2.24008,-4.02957c1.3432,1.79164 2.51901,3.41376 3.69485,4.98226c0.50421,0.72737 1.12003,1.40112 1.73584,2.0727c0.36692,0.36477 0.84967,0.5493 1.33246,0.5493c0.40125,0 0.80033,-0.1266 1.13291,-0.38194c0.95053,-0.50422 1.23162,-1.68005 0.72738,-2.63273c-0.50421,-0.83895 -1.06424,-1.62212 -1.68005,-2.40744c-0.50424,-0.78316 -1.39899,-1.34319 -1.28742,-2.46323c0.11161,0 0.22318,-0.05579 0.39054,-0.11157c0.78531,0 1.56848,0.02575 2.35165,0.02575c0.39264,0 0.78531,-0.00644 1.17581,-0.02575c1.06427,0 2.12851,-0.11158 3.19275,-0.28108c2.57483,-0.33472 2.35166,-4.14328 -0.28106,-4.14328c-0.67161,0 -1.39899,0.05578 -2.12638,0.05578l-8.06341,0c0.61581,-1.23161 1.17584,-2.35165 1.68005,-3.41376c0.56003,-1.17582 1.17584,-2.29586 1.68005,-3.4159c0.56003,-0.8969 0.22318,-2.07273 -0.72952,-2.57695c-0.33902,-0.21457 -0.65655,-0.30898 -0.95053,-0.30898z" fill="#ffffff"/>
   <path id="svg_30" fill-rule="evenodd" d="m127.1665,75.30975c-0.65228,0 -1.28955,0.31111 -1.70795,0.90332c-0.50423,0.72952 -1.00846,1.5127 -1.39897,2.35165c-0.8969,1.68006 -1.79163,3.4717 -2.91168,5.48862c-0.78531,-1.56848 -1.34533,-2.85588 -2.07271,-4.08749c-0.38837,-0.73596 -0.9441,-1.27024 -1.69294,-1.27024c-0.221,0 -0.45917,0.0472 -0.7145,0.1502c-1.06426,0.39265 -1.45692,1.39897 -1.00847,2.68637c0.39265,1.12004 0.95267,2.12851 1.40112,3.24855c0.16736,0.56001 0.72738,1.06425 0.11158,1.73584l-3.75278,0c-0.78317,0 -1.56634,0.0558 -2.40744,0.22316c-0.95053,0.05578 -1.68006,0.84109 -1.62213,1.79162c0,1.23377 0.78318,1.79164 1.90321,1.90537c0.20384,0.01716 0.40983,0.02359 0.61796,0.02359c0.41411,0 0.83681,-0.02359 1.28525,-0.02359c1.45691,0.05578 2.96746,0.11157 4.64752,0.16736c-0.27893,1.17582 -0.72738,2.24008 -1.2874,3.24853c-0.61581,1.28742 -1.34534,2.51903 -1.84742,3.86221c-0.61581,1.5127 -0.28108,2.57695 0.78317,3.02324c0.26821,0.12661 0.52569,0.19097 0.77244,0.19097c0.73167,0 1.37108,-0.55573 1.91608,-1.64572c0.83895,-1.79164 1.79164,-3.52748 2.85374,-5.15175c0.8411,0.72737 1.00847,1.62427 1.40112,2.40744c0.27894,0.6158 0.56002,1.17582 0.89475,1.68005c0.34759,0.65444 0.98272,1.01705 1.65645,1.01705c0.30684,0 0.62225,-0.07509 0.9205,-0.23388c0.89474,-0.39051 1.34318,-1.34318 1.06425,-2.29586c-0.2253,-0.72739 -0.50423,-1.51055 -0.84111,-2.23793c-0.44844,-1.06426 -0.95053,-2.12851 -1.45475,-3.24855c0.63511,-0.21242 1.22088,-0.2725 1.78733,-0.2725c0.62869,0 1.23162,0.07509 1.85172,0.10514c1.51055,0.05578 3.02325,0.22314 4.53594,0.22314c1.51055,0 2.46323,-0.89473 2.40744,-2.01477c0.05579,-1.17583 -0.89689,-2.07272 -2.01693,-2.12851c-0.61581,-0.11157 -1.23161,-0.16736 -1.9032,-0.22314c-2.01479,-0.11373 -4.08751,-0.16951 -6.32758,-0.28109c0.11157,-1.23161 0.78531,-2.12635 1.23161,-3.07904c0.95268,-1.73584 1.90535,-3.47169 2.8001,-5.26332c0.50423,-0.89689 0.16736,-2.07272 -0.72738,-2.63273c-0.35833,-0.23174 -0.75528,-0.34331 -1.14794,-0.34331z" fill="#ffffff"/>
   <path id="svg_31" fill-rule="evenodd" d="m387.31389,283.268c-0.80893,0 -1.54059,0.65872 -2.27228,2.07916c-0.89474,1.84958 -1.84741,3.69699 -2.68637,5.43283c-0.61795,0 -1.23376,-0.22528 -1.68005,-0.61581c-1.34534,-0.8411 -2.52115,-1.73584 -3.69699,-2.80008c-0.4549,-0.4227 -0.9484,-0.69519 -1.46765,-0.69519c-0.37549,0 -0.76386,0.1416 -1.16294,0.47205c-0.84109,0.72735 -0.89688,1.79162 -0.05578,2.91165c0.6716,0.61581 1.28738,1.23163 2.01477,1.79165c0.39267,0.44629 1.17584,0.61579 1.00848,1.51053c-1.17584,0.61582 -2.40744,1.17584 -3.5275,1.84744c-1.00845,0.44843 -1.40112,1.56849 -1.00845,2.52115c0.31113,0.69736 0.88831,1.04496 1.66074,1.04496c0.34332,0 0.72525,-0.06867 1.13934,-0.206c1.12006,-0.44845 2.12851,-1.23163 3.36014,-1.3432l0,0c0.3905,0.6716 0.05578,1.12006 -0.11374,1.62427c-0.44629,1.28741 -0.89475,2.57483 -1.2316,3.86221c-0.33472,1.00849 0.22528,2.07273 1.2316,2.40744c0.26822,0.12659 0.54715,0.18454 0.82181,0.18454c0.70593,0 1.37536,-0.3948 1.69937,-1.07928c0.3905,-0.72739 0.6716,-1.45691 0.95053,-2.24008c0.44629,-1.44831 0.72522,-2.95243 1.72082,-4.5102l0,0c1.83027,1.16724 3.44379,2.33451 5.111,3.33438c0.62866,0.36261 1.22729,0.53855 1.75299,0.53855c0.69092,0 1.25735,-0.30252 1.60711,-0.87543c0.6716,-1.0621 0.27893,-2.23791 -1.06424,-3.19061c-0.6716,-0.50421 -1.3432,-0.89688 -2.0148,-1.34317c-0.78531,-0.56003 -1.73584,-0.84113 -2.29586,-1.90537c2.0148,-0.83896 3.86221,-1.51056 5.65383,-2.29587c0.8411,-0.33471 1.62427,-0.78317 2.40744,-1.28738c0.8411,-0.56003 1.12006,-1.79166 0.50425,-2.63061c-0.29825,-0.68232 -0.95053,-1.07068 -1.64145,-1.07068c-0.21884,0 -0.43985,0.03863 -0.65442,0.11801c-0.6716,0.22314 -1.3432,0.56003 -2.0148,0.84109c-1.06424,0.39054 -2.01691,1.11789 -3.19275,1.17585c-0.33472,-0.78531 0.22531,-1.28956 0.39267,-1.84958c0.72738,-1.9032 0.61581,-3.07904 -0.50424,-3.58326c-0.25748,-0.11587 -0.50852,-0.17596 -0.75098,-0.17596z" fill="#ffffff"/>
   <path id="svg_32" fill-rule="evenodd" d="m232.57251,302.70562c-3.52748,0 -6.21387,2.8559 -6.21387,6.77603c0.0558,3.4159 2.79796,6.15808 6.21387,6.15808c3.58327,-0.05578 6.43915,-3.19061 6.43915,-6.99917c-0.05579,-3.30219 -2.85588,-5.93494 -6.43915,-5.93494z" fill="#000000"/>
   <path id="svg_33" fill-rule="evenodd" d="m235.03573,239.48993c-3.2464,0.05579 -5.76541,2.74429 -5.65384,5.93491c0.05579,2.828 2.96317,5.54443 5.84696,5.54443c0.03002,0 0.05792,0 0.08796,0c2.91167,0 5.31911,-2.74432 5.26332,-6.04865c-0.05578,-3.02325 -2.51901,-5.43069 -5.5444,-5.43069z" fill="#000000"/>
   <path id="svg_34" fill-rule="evenodd" d="m233.43077,270.37895c-0.13518,0 -0.27249,0.00644 -0.40982,0.01932c-3.52748,0.39267 -5.93492,2.0148 -5.99071,5.65597c-0.11157,2.87735 2.45894,5.26334 5.49292,5.26334c0.03647,0 0.0708,0 0.10514,0c0.03433,0 0.06866,0 0.10299,0c3.08975,0 5.60878,-2.4997 5.553,-5.60019c0.05363,-2.77222 -2.17572,-5.33844 -4.85352,-5.33844z" fill="#000000"/>
   <path id="svg_35" fill-rule="evenodd" d="m233.5874,198.9432c-2.96745,0 -5.55513,2.62415 -5.7182,5.77399c-0.11157,2.91168 1.96114,4.87283 5.43283,4.9844c0.0751,0.00214 0.15019,0.00431 0.2253,0.00431c3.19705,0 5.71177,-2.31305 5.82119,-5.26764c0.11159,-2.85587 -2.40744,-5.37491 -5.48861,-5.48648c-0.09012,-0.00644 -0.18239,-0.00858 -0.27251,-0.00858z" fill="#000000"/>
   <path id="svg_36" fill-rule="evenodd" d="m235.42839,142.17309c-2.63058,0 -5.65598,2.96745 -5.59805,5.48862c0.05578,2.85589 2.35165,5.15175 5.14961,5.15175c3.02539,0 5.48862,-2.40958 5.60019,-5.43284c-0.05579,-2.80009 -2.29585,-5.09596 -5.15175,-5.20753z" fill="#000000"/>
   <path id="svg_37" fill-rule="evenodd" d="m234.14099,170.28135c-2.1843,0 -4.81488,2.91168 -4.81488,5.32126c0,2.6306 2.18214,4.75909 4.81488,4.81488c2.68852,-0.22528 4.81488,-2.40744 5.04018,-5.09596c-0.05794,-2.74431 -2.29587,-4.98224 -5.04018,-5.04018z" fill="#000000"/>
   <path id="svg_38" fill-rule="evenodd" d="m218.98184,80.2362c-0.09656,0 -0.19527,0.00214 -0.29396,0.00858c-4.42438,0 -6.60866,5.43284 -3.36012,8.56765c0.99989,0.96556 2.2079,1.39684 3.39445,1.39684c2.59625,0 5.08095,-2.07273 5.00369,-5.14961c0.05365,-2.6456 -2.07914,-4.82346 -4.74406,-4.82346z" fill="#000000"/>
   <path id="svg_39" fill-rule="evenodd" d="m246.62665,79.85428c-2.46324,0.11157 -4.42223,2.07057 -4.47801,4.47801c0.05578,2.24008 2.23793,4.0875 4.87066,4.0875c0.03434,0.00215 0.06867,0.00215 0.10085,0.00215c2.25081,0 4.09822,-1.82811 4.04243,-4.08965c0.05579,-2.18429 -2.24008,-4.47801 -4.53593,-4.47801z" fill="#000000"/>
   <path id="svg_40" fill-rule="evenodd" d="m384.13403,232.43283c-0.03433,0 -0.06653,0 -0.10086,0.00214c-2.23795,0.16735 -3.97379,1.95898 -4.14328,4.19906c0.05579,1.79163 1.51269,3.24854 3.30432,3.30432c1.9032,-0.05578 4.14328,-2.35165 4.14328,-4.31277c0,-1.75733 -1.45691,-3.19275 -3.20346,-3.19275z" fill="#ffffff"/>
   <path id="svg_41" fill-rule="evenodd" d="m271.36406,58.79882c-3.25928,0 -4.95435,3.93731 -2.61987,6.2718c0.75744,0.75741 1.68222,1.09643 2.58767,1.09643c1.90537,0 3.72275,-1.50625 3.68415,-3.78282c-0.05582,-1.96114 -1.6243,-3.52747 -3.58329,-3.58327c-0.02359,-0.00214 -0.04721,-0.00214 -0.06866,-0.00214z" fill="#ffffff"/>
   <path id="svg_42" fill-rule="evenodd" d="m349.98998,179.74591c-2.07059,0 -3.69485,1.68005 -3.63907,3.69484c0,2.03624 1.67578,3.58542 3.64765,3.58542c0.03433,0 0.06866,0 0.10299,-0.00215c2.01694,-0.05579 3.58325,-1.73584 3.52747,-3.69484c0,-2.01694 -1.6221,-3.58327 -3.63904,-3.58327z" fill="#ffffff"/>
   <path id="svg_43" fill-rule="evenodd" d="m157.86244,192.89885c-0.06865,0 -0.13947,0 -0.20813,0.00427c-4.70331,0.44846 -4.31064,7.39185 0.39267,7.39185c1.95898,-0.11157 3.52748,-1.73584 3.47168,-3.75278c0,-2.05771 -1.62427,-3.64334 -3.65622,-3.64334z" fill="#ffffff"/>
   <path id="svg_44" fill-rule="evenodd" d="m358.55763,85.84498c-1.96115,0.11157 -3.5275,1.79163 -3.41592,3.80641c-0.05579,1.79164 1.3432,3.30434 3.13482,3.41591c1.96115,0 3.58329,-1.62427 3.5275,-3.63905c0.16949,-1.90322 -1.3432,-3.52748 -3.2464,-3.58327z" fill="#ffffff"/>
   <path id="svg_45" fill-rule="evenodd" d="m325.24181,261.32638c-1.96112,0.16953 -3.47168,1.73587 -3.58325,3.69699c-0.11371,1.79166 1.3432,3.30219 3.13482,3.30219c2.07273,-0.05579 3.75062,-1.73584 3.80857,-3.8064c-0.11374,-1.79166 -1.56848,-3.19278 -3.36014,-3.19278z" fill="#ffffff"/>
   <path id="svg_46" fill-rule="evenodd" d="m395.96309,163.17061c-4.22269,0 -4.22269,6.38551 0,6.38551c0.03647,0 0.07294,0 0.10941,-0.00213c4.14331,-0.11159 4.14331,-6.27181 0,-6.38338c-0.03647,0 -0.07294,0 -0.10941,0z" fill="#ffffff"/>
   <path id="svg_47" fill-rule="evenodd" d="m137.48503,262.6138c-0.0322,0 -0.06651,0 -0.10085,0.00214c-0.03219,-0.00214 -0.06652,-0.00214 -0.0987,-0.00214c-1.74658,0 -3.14769,1.43546 -3.09191,3.24854c0,1.73587 1.45476,3.19277 3.24854,3.24856c1.79164,-0.11374 3.19061,-1.56848 3.2464,-3.30435c-0.05579,-1.75729 -1.45691,-3.19275 -3.20348,-3.19275z" fill="#ffffff"/>
   <path id="svg_48" fill-rule="evenodd" d="m101.37342,145.25213c-0.03434,0 -0.06867,0 -0.10299,0.00214c-1.68007,0.11157 -3.0254,1.45477 -3.08119,3.13482c0,1.79163 1.45691,3.2464 3.19276,3.30434c1.79163,-0.05794 3.2464,-1.51271 3.19061,-3.30434c0,-1.75731 -1.45262,-3.13696 -3.19919,-3.13696z" fill="#ffffff"/>
   <path id="svg_49" fill-rule="evenodd" d="m243.88448,38.75398c-1.79163,0 -3.24855,1.45691 -3.30434,3.24854c0,1.7573 1.45478,3.13697 3.19921,3.13697c0.03433,0 0.06866,0 0.10513,-0.00215c1.79164,0 3.19061,-1.45476 3.13483,-3.2464c-0.11158,-1.68005 -1.45691,-3.08117 -3.13483,-3.13696z" fill="#ffffff"/>
  </g>
 </g>
</svg>